<svg width="166" height="29" viewBox="0 0 166 29" fill="none" xmlns="http://www.w3.org/2000/svg">
<path d="M11.208 18.224C11.208 19.832 10.08 20.768 8.232 20.768H4.536V15.56H8.136C9.96 15.56 11.208 16.568 11.208 18.224ZM10.776 10.952C10.776 12.488 9.696 13.328 7.92 13.328H4.536V8.552H7.92C9.696 8.552 10.776 9.44 10.776 10.952ZM13.944 18.512C13.944 16.52 12.504 14.744 10.728 14.432C12.336 13.856 13.56 12.632 13.56 10.616C13.56 8.264 11.688 6.32 8.16 6.32H1.8V23H8.472C11.88 23 13.944 21.056 13.944 18.512ZM27.8852 6.296V18.728L19.6532 6.296H16.9172V23H19.6532V10.544L27.8852 23H30.6212V6.296H27.8852ZM43.6221 18.224C43.6221 19.832 42.4941 20.768 40.6461 20.768H36.9501V15.56H40.5501C42.3741 15.56 43.6221 16.568 43.6221 18.224ZM43.1901 10.952C43.1901 12.488 42.1101 13.328 40.3341 13.328H36.9501V8.552H40.3341C42.1101 8.552 43.1901 9.44 43.1901 10.952ZM46.3581 18.512C46.3581 16.52 44.9181 14.744 43.1421 14.432C44.7501 13.856 45.9741 12.632 45.9741 10.616C45.9741 8.264 44.1021 6.32 40.5741 6.32H34.2141V23H40.8861C44.2941 23 46.3581 21.056 46.3581 18.512Z" fill="#EDEDED"/>
<path d="M55.2833 16.976C55.2833 18.08 54.8513 18.368 54.2753 18.368C53.5793 18.368 53.0273 17.984 53.0273 16.496H47.7713C47.7713 20.96 50.5312 23.168 54.5153 23.168C58.2593 23.168 60.5873 21.128 60.5873 16.976V6.008H55.2833V16.976ZM74.6235 23H80.2395L74.0475 6.008H67.9035L61.6875 23H67.2795L68.1195 20.432H73.7835L74.6235 23ZM72.4875 16.424H69.4155L70.9515 11.696L72.4875 16.424ZM80.97 14.48C80.97 19.544 84.162 23.12 89.37 23.12C93.858 23.12 96.906 20.432 97.602 16.424H91.986C91.482 17.552 90.474 18.2 89.274 18.2C87.474 18.2 86.37 16.736 86.37 14.48C86.37 12.224 87.474 10.76 89.274 10.76C90.474 10.76 91.482 11.408 91.986 12.536H97.602C96.906 8.528 93.858 5.84 89.37 5.84C84.162 5.84 80.97 9.416 80.97 14.48ZM109.792 23H116.128L109.888 14.144L115.744 6.008H109.72L104.848 13.16V6.008H99.5203V23H104.848V15.632L109.792 23ZM122.966 13.4V10.28H124.478C125.678 10.28 126.134 10.904 126.134 11.84C126.134 12.776 125.678 13.4 124.478 13.4H122.966ZM131.534 11.84C131.534 8.408 129.35 6.008 125.078 6.008H117.638V23H122.966V17.6H125.078C129.35 17.6 131.534 14.984 131.534 11.84ZM150.215 14.432C150.215 9.32 146.351 5.72 141.503 5.72C136.679 5.72 132.743 9.32 132.743 14.432C132.743 19.544 136.679 23.168 141.503 23.168C146.303 23.168 150.215 19.544 150.215 14.432ZM138.167 14.432C138.167 12.128 139.319 10.64 141.503 10.64C143.639 10.64 144.815 12.128 144.815 14.432C144.815 16.688 143.639 18.2 141.503 18.2C139.319 18.2 138.167 16.688 138.167 14.432ZM151.178 10.232H155.642V23H160.97V10.232H165.482V6.008H151.178V10.232Z" fill="#FFD231"/>
</svg>
